<?xml version="1.0" encoding="utf-8"?>
<!-- Generator: Adobe Illustrator 26.0.1, SVG Export Plug-In . SVG Version: 6.00 Build 0)  -->
<svg version="1.1" id="Layer_1" xmlns="http://www.w3.org/2000/svg" xmlns:xlink="http://www.w3.org/1999/xlink" x="0px" y="0px"
	 viewBox="0 0 40 40" style="enable-background:new 0 0 40 40;" xml:space="preserve">
<style type="text/css">
	.st0{fill:#FFFFFF;}
	.st1{fill:url(#SVGID_1_);}
	.st2{fill:#00589C;}
	.st3{fill:#F36F21;}
</style>
<path class="st0" d="M18.8,39.3l-14.6-8c-1-0.5-1.6-1.5-1.6-2.6L2.4,12c0-1.1,0.5-2.1,1.5-2.7l14.2-8.6c0.9-0.6,2.1-0.6,3.1-0.1
	l14.6,8c1,0.5,1.6,1.5,1.6,2.6L37.6,28c0,1.1-0.5,2.1-1.5,2.7l-14.2,8.6C21,39.8,19.8,39.8,18.8,39.3z"/>
<linearGradient id="SVGID_1_" gradientUnits="userSpaceOnUse" x1="7.1076" y1="33.2197" x2="32.7427" y2="6.9239" gradientTransform="matrix(1 0 0 -1 0 40)">
	<stop  offset="1.869010e-07" style="stop-color:#F36F21;stop-opacity:0.1"/>
	<stop  offset="1" style="stop-color:#F36F21;stop-opacity:0.6"/>
</linearGradient>
<path class="st1" d="M18.8,39.3l-14.6-8c-1-0.5-1.6-1.5-1.6-2.6L2.4,12c0-1.1,0.5-2.1,1.5-2.7l14.2-8.6c0.9-0.6,2.1-0.6,3.1-0.1
	l14.6,8c1,0.5,1.6,1.5,1.6,2.6L37.6,28c0,1.1-0.5,2.1-1.5,2.7l-14.2,8.6C21,39.8,19.8,39.8,18.8,39.3z"/>
<g>
	<g>
		<g>
			<g>
				<g>
					<path class="st2" d="M27,17.5c-0.8-0.6-1.9-1-3-1c-1.2,0-2.2,0.4-3,1c-0.8,0.6-1.3,1.5-1.4,2.5c-0.1,1,0.4,2,1.2,2.7
						c0.8,0.7,2,1.2,3.2,1.2c1.3,0,2.4-0.5,3.2-1.2c0.8-0.7,1.2-1.7,1.2-2.7C28.3,19,27.8,18.1,27,17.5z"/>
				</g>
			</g>
			<path class="st3" d="M34.4,19.8c-0.2-1.2-0.6-2.4-1.3-3.5c-0.6-1-1.4-1.8-2.3-2.6l0,0l0,0c0,0,0,0,0-0.1L21,6.6
				c-0.6-0.5-1.4-0.4-1.9,0.2s-0.4,1.4,0.2,1.9l4.1,3H10.3c-0.9,0-1.7,0.8-1.7,1.7s0.8,1.7,1.7,1.7h4.9L5.2,23.7
				c-0.7,0.6-0.8,1.7-0.2,2.4c0.3,0.4,0.8,0.6,1.3,0.6c0.4,0,0.8-0.1,1.1-0.4l6.1-5.2c0,0.5,0,1,0,1.2c0,2.4,2.7,8.5,10.6,8.5
				c5.7,0,10.4-3.4,10.4-9C34.5,21.1,34.5,20.5,34.4,19.8z M30.1,22c-0.3,0.7-0.7,1.4-1.3,2c-1.2,1.2-3,1.9-4.8,1.9
				c-1.9,0-3.6-0.7-4.8-1.9c-0.6-0.6-1-1.3-1.3-2c-0.3-0.7-0.4-1.5-0.3-2.3c0.1-0.8,0.3-1.5,0.7-2.1c0.4-0.6,0.9-1.2,1.5-1.7
				c1.2-1,2.7-1.5,4.3-1.5s3.1,0.5,4.3,1.5c0.6,0.5,1.1,1.1,1.5,1.7c0.4,0.6,0.6,1.4,0.7,2.1C30.5,20.5,30.4,21.3,30.1,22z"/>
		</g>
	</g>
</g>
</svg>
