<?xml version="1.0" encoding="utf-8"?>
<!-- Generator: Adobe Illustrator 26.0.1, SVG Export Plug-In . SVG Version: 6.00 Build 0)  -->
<svg version="1.1" id="Layer_1" xmlns="http://www.w3.org/2000/svg" xmlns:xlink="http://www.w3.org/1999/xlink" x="0px" y="0px"
	 viewBox="0 0 40 40" style="enable-background:new 0 0 40 40;" xml:space="preserve">
<style type="text/css">
	.st0{fill:url(#SVGID_1_);}
	.st1{display:none;fill:url(#SVGID_00000116936033582703578870000004935755906380864128_);}
	.st2{fill:#FFFFFF;}
</style>
<linearGradient id="SVGID_1_" gradientUnits="userSpaceOnUse" x1="10.7749" y1="4.6356" x2="29.3398" y2="35.5554">
	<stop  offset="0.4983" style="stop-color:#9C1B3D"/>
	<stop  offset="0.4983" style="stop-color:#D36484"/>
</linearGradient>
<path class="st0" d="M18.84,39.3L4.28,31.27c-0.96-0.53-1.56-1.53-1.58-2.62L2.38,12.02c-0.02-1.09,0.54-2.11,1.48-2.68L18.1,0.76
	c0.93-0.56,2.1-0.59,3.06-0.06l14.56,8.04c0.96,0.53,1.56,1.53,1.58,2.62l0.32,16.63c0.02,1.09-0.54,2.11-1.48,2.68L21.9,39.24
	C20.96,39.81,19.8,39.83,18.84,39.3z"/>
<linearGradient id="SVGID_00000131359083183794393610000003882831799447218321_" gradientUnits="userSpaceOnUse" x1="7.1101" y1="6.7779" x2="32.7452" y2="33.0737">
	<stop  offset="1.869010e-07" style="stop-color:#F36F21;stop-opacity:0.1"/>
	<stop  offset="1" style="stop-color:#F36F21;stop-opacity:0.6"/>
</linearGradient>
<path style="display:none;fill:url(#SVGID_00000131359083183794393610000003882831799447218321_);" d="M18.84,39.3L4.28,31.27
	c-0.96-0.53-1.56-1.53-1.58-2.62L2.38,12.02c-0.02-1.09,0.54-2.11,1.48-2.68L18.1,0.76c0.93-0.56,2.1-0.59,3.06-0.06l14.56,8.04
	c0.96,0.53,1.56,1.53,1.58,2.62l0.32,16.63c0.02,1.09-0.54,2.11-1.48,2.68L21.9,39.24C20.96,39.81,19.8,39.83,18.84,39.3z"/>
<path class="st2" d="M25.29,19.27h1.76v-1.8h1.49v1.8h1.8v1.49h-1.8v1.76h-1.49v-1.76h-1.76C25.29,20.76,25.29,19.27,25.29,19.27z
	 M31.56,19.27h1.76v-1.8h1.49v1.8h1.8v1.49h-1.8v1.76h-1.49v-1.76h-1.76C31.56,20.76,31.56,19.27,31.56,19.27z"/>
<path class="st2" d="M26.99,24.04c-1.62,2.85-4.92,4.63-8.52,4.03c-3.3-0.55-6-3.17-6.63-6.46c-1-5.21,2.99-9.8,8.03-9.8
	c3.04,0,5.71,1.67,7.12,4.18l4.34-2.51C28.71,8.89,23.41,6,17.56,7c-5.7,0.98-10.17,5.75-10.8,11.5c-0.88,7.96,5.34,14.7,13.12,14.7
	c4.88,0,9.16-2.67,11.43-6.62L26.99,24.04z"/>
</svg>
