<?xml version="1.0" encoding="utf-8"?>
<!-- Generator: Adobe Illustrator 26.0.1, SVG Export Plug-In . SVG Version: 6.00 Build 0)  -->
<svg version="1.1" id="Layer_1" xmlns="http://www.w3.org/2000/svg" xmlns:xlink="http://www.w3.org/1999/xlink" x="0px" y="0px"
	 viewBox="0 0 40 40" style="enable-background:new 0 0 40 40;" xml:space="preserve">
<style type="text/css">
	.st0{clip-path:url(#SVGID_00000170975016546879177710000009753917844606364040_);}
	.st1{fill:#EF3F2F;}
</style>
<g>
	<defs>
		<path id="SVGID_1_" d="M18.84,39.3L4.28,31.27c-0.96-0.53-1.56-1.53-1.58-2.62L2.38,12.02c-0.02-1.09,0.54-2.11,1.48-2.68
			L18.1,0.76c0.93-0.56,2.1-0.59,3.06-0.06l14.56,8.04c0.96,0.53,1.56,1.53,1.58,2.62l0.32,16.63c0.02,1.09-0.54,2.11-1.48,2.68
			L21.9,39.24C20.96,39.81,19.8,39.83,18.84,39.3z"/>
	</defs>
	<clipPath id="SVGID_00000033340183657761709870000006349535856914170509_">
		<use xlink:href="#SVGID_1_"  style="overflow:visible;"/>
	</clipPath>
	<g style="clip-path:url(#SVGID_00000033340183657761709870000006349535856914170509_);">
		<path class="st1" d="M40.89,18.93c0.09-1.05,0.09-2.54-0.32-4.19c-0.3-1.22-0.73-2.14-0.89-2.47c0,0-0.32-0.65-0.72-1.28
			c-0.82-1.27-7.84-6.1-17.93-11.93c-2.26-0.75-3.52-0.63-4.14,0c0,0,0,0,0,0c-1.59,1.14-3.18,2.28-4.78,3.42
			c1.96,1.98,3.92,3.96,5.89,5.94C19.21,8,20.6,8.29,21.57,9.26c0.94,0.94,1.26,2.34,0.83,3.6l5.04,5.04
			c1.22-0.42,2.63-0.15,3.6,0.83c1.36,1.36,1.36,3.57,0,4.93c-1.36,1.36-3.57,1.36-4.93,0c-1.02-1.02-1.28-2.53-0.76-3.79l-4.7-4.7
			v12.38c0.34,0.17,0.65,0.39,0.92,0.66c1.36,1.36,1.36,3.57,0,4.93c-1.36,1.36-3.57,1.36-4.93,0c-1.36-1.36-1.36-3.56,0-4.93
			c0,0,0,0,0,0c0.34-0.34,0.71-0.59,1.14-0.76V14.95c-0.42-0.17-0.8-0.42-1.14-0.76c-1-1-1.3-2.51-0.75-3.81l-5.16-5.16
			c-0.39-0.35-0.99-0.77-1.77-0.87C7.57,4.17,5.93,5.07,2.74,9.38c-1.57,2.12-3.65,5.26-5.63,9.44c-0.78,2.33-0.6,3.54,0,4.14
			c0,0,0,0,0,0c1.84,2.58,4.01,5.32,6.57,8.11c4.59,5.01,9.23,8.85,13.29,11.75c2.26,0.75,3.52,0.63,4.14,0c0,0,0,0,0,0
			c3.4-1.4,9.48-4.47,14.56-10.81c2.58-3.23,4.19-6.41,5.21-8.93C40.89,21.71,40.89,20.32,40.89,18.93z"/>
	</g>
</g>
</svg>
