<?xml version="1.0" encoding="utf-8"?>
<!-- Generator: Adobe Illustrator 26.0.1, SVG Export Plug-In . SVG Version: 6.00 Build 0)  -->
<svg version="1.1" id="Layer_1" xmlns="http://www.w3.org/2000/svg" xmlns:xlink="http://www.w3.org/1999/xlink" x="0px" y="0px"
	 viewBox="0 0 40 40" style="enable-background:new 0 0 40 40;" xml:space="preserve">
<style type="text/css">
	.st0{fill:#FFFFFF;}
	.st1{fill:#E44F26;}
	.st2{fill:url(#SVGID_1_);}
	.st3{fill:#EA683A;}
	.st4{fill:#EBEBEB;}
	.st5{fill:#010101;}
</style>
<path class="st0" d="M18.5,39.3L4.1,31c-0.9-0.5-1.5-1.6-1.5-2.6l0-16.6c0-1.1,0.6-2.1,1.5-2.7l14.4-8.3c0.9-0.5,2.1-0.5,3.1,0
	L35.9,9c1,0.6,1.5,1.6,1.5,2.7l0,16.6c0,1.1-0.6,2.1-1.5,2.6l-14.4,8.3C20.6,39.8,19.5,39.8,18.5,39.3z"/>
<path class="st1" d="M37.4,12.4c0,5.7,0,10.2,0,15.9c0,1.1-0.6,2.1-1.5,2.6l-14.4,8.3c-1,0.5-2.1,0.5-3.1,0L4.1,31
	c-1-0.5-1.5-1.5-1.5-2.6c0-5.7,0-10.2,0-15.9C14.2,12.4,25.8,12.4,37.4,12.4z"/>
<linearGradient id="SVGID_1_" gradientUnits="userSpaceOnUse" x1="293.1167" y1="342.7616" x2="318.7518" y2="369.0574" gradientTransform="matrix(0.9998 1.780000e-02 -1.780000e-02 0.9998 -279.6275 -341.3689)">
	<stop  offset="1.869010e-07" style="stop-color:#F37024;stop-opacity:0.1"/>
	<stop  offset="1" style="stop-color:#F37024;stop-opacity:0.6"/>
</linearGradient>
<path class="st2" d="M18.5,39.3L4.1,31c-1-0.5-1.5-1.6-1.5-2.6l0-16.6c0-1.1,0.6-2.1,1.5-2.7l14.4-8.3c0.9-0.5,2.1-0.6,3.1,0L35.9,9
	c1,0.6,1.5,1.6,1.5,2.7l0,16.6c0,1.1-0.6,2.1-1.5,2.6l-14.4,8.3C20.6,39.8,19.5,39.8,18.5,39.3z"/>
<path class="st3" d="M20,14.2c5.1,0,10.2,0,15.4,0c0,4.7,0,8.4,0,13.1c0,1.1-0.6,2.1-1.5,2.6l-12.3,7.1c-0.1,0-0.2,0.1-0.2,0.1
	c-0.1,0-0.1,0.1-0.2,0.1c0,0-0.1,0-0.2,0.1c-0.1,0-0.1,0-0.2,0c0,0-0.1,0-0.2,0s-0.1,0-0.2,0c0,0-0.1,0-0.2,0c-0.1,0-0.1,0-0.2,0"/>
<path class="st4" d="M19.9,23h-4.4l-0.3-3.4h4.7v-3.3h-8.3l0.1,0.9l0.8,9.1h7.4C19.9,26.3,19.9,23,19.9,23z M19.9,32L19.9,32
	l-4.1-2.2L15.6,28h-2.9l0.3,3.4l6.9,4l0-0.3L19.9,32z"/>
<path class="st0" d="M19.9,23v3.3H24l-0.3,3.5L19.9,32v3.3l6.9-4l0-0.1l0.6-7.3l0.1-0.9h-0.9C26.7,23,19.9,23,19.9,23z M19.9,16.4
	v3.3h8l0.1-0.7l0.1-1.7l0.1-0.9L19.9,16.4z"/>
<path class="st5" d="M9.7,6.5h1.7v1.7H13V6.5h1.7v5.2H13V9.9h-1.6v1.7H9.7V6.5z M17,8.2h-1.5V6.5h4.8v1.7h-1.5v3.5h-1.7
	C17,11.6,17,8.2,17,8.2z M21.1,6.5h1.8L24,8.3l1.1-1.8h1.8v5.2h-1.7V9.1L24,10.9h0l-1.2-1.8v2.6h-1.7L21.1,6.5L21.1,6.5z M27.8,6.5
	h1.7v3.5h2.4v1.7h-4.2V6.5z"/>
</svg>
