<?xml version="1.0" encoding="utf-8"?>
<!-- Generator: Adobe Illustrator 26.0.1, SVG Export Plug-In . SVG Version: 6.00 Build 0)  -->
<svg version="1.1" id="Layer_1" xmlns="http://www.w3.org/2000/svg" xmlns:xlink="http://www.w3.org/1999/xlink" x="0px" y="0px"
	 viewBox="0 0 40 40" style="enable-background:new 0 0 40 40;" xml:space="preserve">
<style type="text/css">
	.st0{fill:#E44F26;}
	.st1{fill:#F15A2C;}
	.st2{fill:#1F100C;}
	.st3{display:none;fill:#102447;}
</style>
<path class="st0" d="M37.42,12.45c0.01,5.68,0.03,10.18,0.04,15.86c0,1.09-0.58,2.1-1.53,2.65l-14.4,8.32
	c-0.95,0.55-2.11,0.55-3.06,0l-14.4-8.32c-0.95-0.55-1.53-1.55-1.53-2.65c0-5.68-0.01-10.18-0.01-15.86
	C14.16,12.45,25.79,12.45,37.42,12.45z"/>
<path class="st1" d="M18.5,39.27L4.08,30.99c-0.95-0.55-1.53-1.56-1.53-2.65L2.52,11.71c0-1.09,0.58-2.1,1.53-2.65l14.39-8.33
	c0.94-0.54,2.11-0.55,3.06-0.01l14.41,8.3c0.95,0.55,1.53,1.56,1.53,2.65l0.02,16.63c0,1.09-0.58,2.1-1.53,2.65l-14.39,8.32
	C20.61,39.82,19.45,39.82,18.5,39.27z"/>
<path class="st2" d="M18.63,37.53L5.53,29.99c-0.86-0.5-1.39-1.42-1.39-2.41L4.11,12.46c0-0.99,0.52-1.91,1.39-2.41l13.08-7.57
	c0.85-0.49,1.92-0.5,2.78-0.01l13.11,7.54c0.86,0.5,1.39,1.42,1.39,2.41l0.02,15.12c0,0.99-0.52,1.91-1.39,2.41l-13.08,7.56
	C20.55,38.02,19.5,38.02,18.63,37.53z"/>
<path class="st3" d="M18.5,39.28L4.08,30.99c-0.95-0.55-1.53-1.56-1.53-2.65L2.52,11.71c0-1.09,0.58-2.1,1.53-2.65l14.39-8.33
	c0.94-0.54,2.11-0.55,3.06-0.01l14.41,8.3c0.95,0.55,1.53,1.56,1.53,2.65l0.02,16.63c0,1.09-0.58,2.1-1.53,2.65l-14.39,8.32
	C20.61,39.82,19.45,39.82,18.5,39.28z"/>
<g>
	<rect x="9.14" y="10.86" class="st1" width="19.53" height="18.32"/>
	<path class="st2" d="M8.64,9.65L8.53,29.37l20.67,0.23l0.06-21.42L8.64,9.65z M19.55,28.6l-0.89-3.4h-4.58l-0.89,3.4H9.63
		l5.2-16.64h3.07l5.23,16.64H19.55z M27.93,28.6h-3.24V16.23h3.24V28.6z M27.58,14.27c-0.32,0.33-0.74,0.49-1.29,0.49
		c-0.54,0-0.97-0.16-1.29-0.49s-0.47-0.74-0.47-1.23c0-0.5,0.16-0.91,0.48-1.23s0.75-0.48,1.28-0.48s0.96,0.16,1.28,0.48
		c0.32,0.32,0.48,0.73,0.48,1.23C28.05,13.53,27.89,13.94,27.58,14.27z"/>
	<path class="st2" d="M14.55,22.49h3.57l-1.78-6.81L14.55,22.49z"/>
</g>
</svg>
