<?xml version="1.0" encoding="utf-8"?>
<!-- Generator: Adobe Illustrator 26.0.1, SVG Export Plug-In . SVG Version: 6.00 Build 0)  -->
<svg version="1.1" id="Layer_1" xmlns="http://www.w3.org/2000/svg" xmlns:xlink="http://www.w3.org/1999/xlink" x="0px" y="0px"
	 viewBox="0 0 40 40" style="enable-background:new 0 0 40 40;" xml:space="preserve">
<style type="text/css">
	.st0{fill:#CECBCA;}
	.st1{fill:#F8C114;}
	.st2{fill:#010101;}
</style>
<path class="st0" d="M18.5,39.27L4.08,30.99c-0.95-0.55-1.53-1.56-1.53-2.65L2.52,11.71c0-1.09,0.58-2.1,1.53-2.65l14.39-8.33
	c0.94-0.54,2.11-0.55,3.06-0.01l14.41,8.3c0.95,0.55,1.53,1.56,1.53,2.65l0.02,16.63c0,1.09-0.58,2.1-1.53,2.65l-14.39,8.32
	C20.61,39.82,19.45,39.82,18.5,39.27z"/>
<g>
	<path class="st1" d="M18.74,13.12c0.09-0.03,0.2-0.04,0.28,0c0.02,0.01,0.04,0.03,0.03,0.05v0.02h0.01
		c-0.02,0.06-0.13,0.05-0.18,0.08c-0.05,0.02-0.1,0.08-0.15,0.08s-0.14-0.02-0.15-0.08C18.57,13.2,18.68,13.12,18.74,13.12z
		 M19.84,13.27c-0.05-0.02-0.16-0.01-0.17-0.08v-0.02c-0.01-0.02,0.01-0.04,0.02-0.05c0.09-0.04,0.2-0.04,0.29,0
		c0.06,0,0.17,0.08,0.16,0.15c-0.01,0.05-0.1,0.06-0.15,0.06C19.93,13.34,19.89,13.29,19.84,13.27z M17.95,14.83
		c0.32,0.21,0.74,0.5,1.27,0.5c0.53,0,1.15-0.29,1.52-0.5c0.2-0.14,0.48-0.35,0.7-0.5c0.17-0.14,0.16-0.28,0.31-0.28
		c0.14,0.01,0.03,0.14-0.16,0.35c-0.2,0.14-0.5,0.35-0.75,0.5c-0.47,0.21-1.03,0.57-1.62,0.57c-0.58,0-1.05-0.29-1.38-0.5
		c-0.17-0.14-0.3-0.28-0.41-0.35c-0.17-0.14-0.15-0.35-0.08-0.35c0.12,0.01,0.14,0.14,0.21,0.21C17.67,14.54,17.8,14.69,17.95,14.83
		z"/>
	<path class="st2" d="M20.14,13.27c-0.01,0.05-0.1,0.06-0.15,0.06s-0.1-0.04-0.15-0.06c-0.05-0.02-0.16-0.01-0.17-0.08v-0.02
		c-0.01-0.02,0.01-0.04,0.02-0.05c0.09-0.04,0.2-0.04,0.29,0C20.04,13.12,20.15,13.2,20.14,13.27z"/>
	<path class="st2" d="M24.97,18.91v0.99h-0.59c0.54,0.98,0.92,2.03,1.14,3.12c0.16-0.01,0.35,0.02,0.56,0.06
		c0.09-0.23,0.14-0.45,0.17-0.68C26.45,20.91,25.5,19.45,24.97,18.91z M24.97,18.91v0.99h-0.59c0.54,0.98,0.92,2.03,1.14,3.12
		c0.16-0.01,0.35,0.02,0.56,0.06c0.09-0.23,0.14-0.45,0.17-0.68C26.45,20.91,25.5,19.45,24.97,18.91z M29.96,27.46v-0.1l-0.01-0.01
		c-0.18-0.21-0.27-0.57-0.36-0.99c-0.09-0.43-0.19-0.85-0.54-1.13c-0.06-0.05-0.13-0.06-0.2-0.14c-0.06-0.04-0.13-0.07-0.2-0.08
		c0.3-0.88,0.33-1.77,0.18-2.62c-0.08-0.46-0.2-0.91-0.38-1.34c-0.58-1.51-1.59-2.83-2.36-3.73c-0.4-0.5-0.8-1.01-1.12-1.55
		c-0.35-0.61-0.59-1.27-0.58-2.07c0.02-1.49,0.12-3.82-0.93-5.27c-0.56-0.78-1.47-1.32-2.91-1.32c-0.17,0-0.34,0.01-0.53,0.02
		c-1.36,0.11-2.21,0.6-2.74,1.3c-1.23,1.63-0.65,4.34-0.7,5.46c-0.09,1.17-0.32,2.09-1.14,3.24c-0.33,0.39-0.72,0.86-1.09,1.4
		c-0.72,1.01-1.44,2.21-1.86,3.46c-0.27,0.8-0.42,1.63-0.34,2.43l0.03,0.25c-0.04,0.03-0.09,0.08-0.12,0.14
		c-0.29,0.29-0.49,0.64-0.72,0.9c-0.23,0.21-0.53,0.29-0.87,0.43c-0.34,0.15-0.72,0.29-0.93,0.73c-0.11,0.2-0.15,0.43-0.15,0.64
		c0,0.21,0.03,0.44,0.06,0.58c0.06,0.43,0.13,0.78,0.04,1.04c-0.27,0.73-0.3,1.23-0.12,1.6c0.19,0.35,0.58,0.49,1.02,0.64
		c0.88,0.21,2.07,0.14,3.02,0.64c1,0.49,2.03,0.72,2.83,0.5c0.58-0.13,1.06-0.5,1.32-1.02c0.05,0,0.1,0,0.15-0.01
		c0.6-0.03,1.27-0.28,2.3-0.34c0.29-0.02,0.6,0.01,0.94,0.05c0.55,0.09,1.17,0.2,1.86,0.16c0.02,0.14,0.06,0.2,0.12,0.35h0.01
		c0.42,0.84,1.2,1.21,2.04,1.15c0.84-0.06,1.73-0.57,2.46-1.4c0.68-0.83,1.82-1.17,2.58-1.62c0.38-0.2,0.69-0.49,0.71-0.91
		C30.75,28.51,30.52,28.07,29.96,27.46z M21.61,12.1c-0.04-0.14-0.11-0.21-0.19-0.35c-0.1-0.08-0.18-0.15-0.29-0.15H21.1
		c-0.1,0-0.19,0.03-0.28,0.15c-0.11,0.1-0.18,0.21-0.23,0.35c-0.05,0.14-0.09,0.28-0.1,0.43v0.02c0,0.1,0.01,0.19,0.02,0.29
		c-0.21-0.08-0.47-0.15-0.65-0.23c-0.01-0.06-0.02-0.14-0.02-0.2v-0.02c-0.01-0.29,0.04-0.57,0.16-0.83
		c0.09-0.24,0.25-0.44,0.46-0.58c0.19-0.14,0.42-0.21,0.64-0.21h0.02c0.23,0,0.43,0.08,0.63,0.21c0.2,0.15,0.35,0.35,0.47,0.58
		c0.12,0.27,0.17,0.48,0.18,0.77c0-0.02,0.01-0.04,0.01-0.06v0.11c-0.01,0-0.01-0.01-0.01-0.02c0,0.25-0.06,0.5-0.16,0.74
		c-0.05,0.13-0.13,0.26-0.24,0.35c-0.03-0.02-0.06-0.03-0.1-0.04c-0.11-0.05-0.21-0.08-0.31-0.14c-0.07-0.04-0.15-0.06-0.24-0.08
		c0.05-0.06,0.16-0.14,0.2-0.21c0.05-0.14,0.09-0.28,0.1-0.43v-0.02C21.68,12.39,21.66,12.24,21.61,12.1z M17.14,11.63
		c0.05-0.21,0.16-0.41,0.31-0.58c0.14-0.14,0.28-0.21,0.45-0.21h0.03c0.16,0,0.31,0.05,0.44,0.15c0.16,0.14,0.29,0.31,0.38,0.49
		c0.1,0.21,0.15,0.43,0.16,0.72c0.01,0.08,0.01,0.13,0.01,0.18c0,0.04,0,0.08-0.01,0.11v0.09c-0.03,0.01-0.06,0.02-0.09,0.02
		c-0.17,0.06-0.3,0.15-0.43,0.21c0.01-0.09,0.01-0.18,0-0.28v-0.02c-0.01-0.14-0.04-0.21-0.09-0.35c-0.04-0.11-0.1-0.21-0.18-0.29
		c-0.06-0.05-0.13-0.07-0.2-0.06H17.9c-0.08,0-0.14,0.04-0.19,0.14c-0.08,0.09-0.12,0.18-0.14,0.29c-0.02,0.12-0.03,0.24-0.02,0.35
		v0.02c0.01,0.14,0.04,0.21,0.09,0.35c0.05,0.14,0.11,0.21,0.18,0.29c0.01,0.01,0.02,0.02,0.03,0.02c-0.08,0.06-0.12,0.08-0.18,0.15
		c-0.04,0.04-0.1,0.06-0.15,0.08c-0.11-0.14-0.2-0.28-0.29-0.44c-0.11-0.23-0.16-0.46-0.17-0.71C17.04,12.1,17.07,11.86,17.14,11.63
		z M17.26,13.9c0.24-0.15,0.41-0.3,0.53-0.36c0.11-0.08,0.15-0.11,0.18-0.14h0.01c0.18-0.23,0.47-0.5,0.9-0.65
		c0.15-0.03,0.32-0.06,0.52-0.06c0.35,0,0.79,0.06,1.31,0.43c0.32,0.21,0.57,0.29,1.15,0.5c0.28,0.14,0.44,0.28,0.53,0.43v-0.15
		c0.08,0.16,0.08,0.34,0.01,0.5c-0.13,0.34-0.56,0.7-1.15,0.91c-0.3,0.14-0.55,0.35-0.85,0.49c-0.3,0.15-0.63,0.32-1.09,0.29
		c-0.16,0.01-0.33-0.01-0.48-0.08c-0.13-0.06-0.25-0.13-0.35-0.2c-0.21-0.15-0.4-0.36-0.67-0.5c-0.44-0.27-0.68-0.56-0.75-0.76
		C16.97,14.25,17.05,14.03,17.26,13.9z M17.43,30.7c-0.06,0.79-0.53,1.22-1.22,1.38c-0.71,0.14-1.65,0-2.61-0.49
		c-1.04-0.58-2.3-0.5-3.09-0.65c-0.41-0.06-0.67-0.21-0.79-0.43c-0.12-0.21-0.12-0.64,0.14-1.32c0.13-0.36,0.03-0.82-0.03-1.2
		c-0.05-0.43-0.09-0.76,0.05-1.01c0.17-0.36,0.43-0.43,0.74-0.58c0.32-0.14,0.7-0.21,1-0.49v-0.01c0.28-0.29,0.48-0.64,0.73-0.9
		c0.2-0.21,0.41-0.35,0.72-0.35h0.01c0.05,0,0.11,0,0.17,0.01c0.41,0.06,0.76,0.36,1.11,0.8l0.99,1.79h0.01
		c0.26,0.57,0.82,1.15,1.29,1.76c0.47,0.64,0.84,1.21,0.79,1.68C17.43,30.69,17.43,30.7,17.43,30.7z M20.96,30.02
		c-1.06,0.25-2.19,0.17-3.24-0.41c-0.13-0.06-0.26-0.14-0.38-0.23c-0.12-0.2-0.27-0.4-0.44-0.57c-0.08-0.13-0.18-0.25-0.3-0.35
		c0.2,0,0.38-0.03,0.52-0.08c0.15-0.08,0.28-0.2,0.33-0.35c0.12-0.29,0-0.75-0.38-1.26c-0.38-0.49-1.01-1.06-1.93-1.63
		c-0.35-0.23-0.62-0.46-0.83-0.72c-0.2-0.25-0.34-0.5-0.43-0.77c-0.17-0.58-0.15-1.17-0.01-1.77c0.16-0.71,0.48-1.4,0.79-1.99
		c0.21-0.38,0.42-0.71,0.59-0.98c0.11-0.08,0.03,0.13-0.42,0.98l-0.03,0.06c-0.43,0.8-1.23,2.68-0.13,4.14
		c0.04-1.06,0.28-2.11,0.7-3.09c0.14-0.32,0.32-0.7,0.52-1.12c0.63-1.34,1.41-3.08,1.48-4.54c0.05,0.04,0.24,0.15,0.31,0.21
		c0.24,0.15,0.42,0.36,0.64,0.5c0.23,0.21,0.52,0.35,0.96,0.35c0.04,0.01,0.08,0.01,0.12,0.01c0.44,0,0.79-0.14,1.08-0.29
		c0.31-0.14,0.56-0.35,0.79-0.43h0.01c0.5-0.14,0.9-0.43,1.14-0.75c0.39,1.52,1.3,3.73,1.88,4.81c0.57,1.01,0.98,2.1,1.2,3.24
		c0.16-0.01,0.35,0.02,0.56,0.06c0.09-0.23,0.14-0.45,0.17-0.68c0.2-1.49-0.74-2.95-1.28-3.5c-0.03-0.02-0.06-0.05-0.09-0.08
		c-0.24-0.21-0.25-0.36-0.13-0.36c0.08,0.06,0.14,0.13,0.21,0.2c0.6,0.62,1.3,1.62,1.57,2.76c0.09,0.31,0.13,0.64,0.13,0.98
		c0,0.27-0.03,0.55-0.1,0.82c0.06,0.03,0.14,0.06,0.21,0.08c1.13,0.57,1.53,1,1.34,1.64V24.9h-0.21c0.16-0.5-0.19-0.89-1.16-1.31
		c-0.99-0.43-1.78-0.36-1.92,0.49c-0.01,0.04-0.01,0.08-0.02,0.15c-0.08,0.02-0.15,0.05-0.23,0.06c-0.46,0.29-0.72,0.72-0.86,1.28
		c-0.14,0.57-0.18,1.23-0.23,2.01c-0.02,0.35-0.18,0.9-0.34,1.45C22.5,29.49,21.76,29.84,20.96,30.02z M29.87,29.47
		c-0.68,0.43-1.89,0.76-2.66,1.68c-0.68,0.79-1.49,1.22-2.21,1.28c-0.72,0.05-1.34-0.21-1.71-0.97h-0.01
		c-0.23-0.43-0.13-1.11,0.06-1.81c0.19-0.72,0.46-1.45,0.5-2.04c0.03-0.76,0.08-1.43,0.2-1.94c0.14-0.5,0.34-0.86,0.7-1.06
		l0.05-0.02c0.03,0.64,0.36,1.33,0.96,1.48c0.63,0.14,1.56-0.36,1.94-0.83l0.23-0.01c0.34-0.01,0.63,0.01,0.92,0.29
		c0.23,0.21,0.33,0.57,0.43,0.94c0.1,0.43,0.17,0.84,0.44,1.14c0.54,0.57,0.71,0.98,0.7,1.22C30.4,29.11,30.21,29.25,29.87,29.47z
		 M24.97,18.91v0.99h-0.59c0.54,0.98,0.92,2.03,1.14,3.12c0.16-0.01,0.35,0.02,0.56,0.06c0.09-0.23,0.14-0.45,0.17-0.68
		C26.45,20.91,25.5,19.45,24.97,18.91z"/>
	<path class="st1" d="M22.38,13.88v0.15c-0.09-0.15-0.25-0.29-0.53-0.43c-0.58-0.21-0.83-0.29-1.15-0.5
		c-0.52-0.36-0.96-0.43-1.31-0.43c-0.19,0-0.36,0.03-0.52,0.06c-0.43,0.15-0.72,0.43-0.9,0.65h-0.01c-0.03,0.03-0.08,0.06-0.18,0.14
		c-0.12,0.06-0.29,0.21-0.53,0.36c-0.21,0.14-0.29,0.35-0.21,0.64c0.08,0.2,0.31,0.49,0.75,0.76c0.27,0.14,0.45,0.35,0.67,0.5
		c0.11,0.08,0.23,0.14,0.35,0.2c0.15,0.06,0.31,0.09,0.48,0.08c0.46,0.03,0.79-0.14,1.09-0.29c0.3-0.14,0.55-0.35,0.85-0.49
		c0.59-0.21,1.02-0.57,1.15-0.91C22.46,14.23,22.46,14.05,22.38,13.88z M19.66,13.18c-0.01-0.02,0.01-0.04,0.02-0.05
		c0.09-0.04,0.2-0.04,0.29,0c0.06,0,0.17,0.08,0.16,0.15c-0.01,0.05-0.1,0.06-0.15,0.06c-0.05,0-0.1-0.04-0.15-0.06
		s-0.16-0.01-0.17-0.08C19.66,13.2,19.66,13.18,19.66,13.18z M18.74,13.12c0.09-0.03,0.2-0.04,0.28,0c0.02,0.01,0.04,0.03,0.03,0.05
		v0.02h0.01c-0.02,0.06-0.13,0.05-0.18,0.08c-0.05,0.02-0.1,0.08-0.15,0.08s-0.14-0.02-0.15-0.08
		C18.57,13.2,18.68,13.12,18.74,13.12z M21.59,14.4c-0.2,0.14-0.5,0.35-0.75,0.5c-0.47,0.21-1.03,0.57-1.62,0.57
		c-0.58,0-1.05-0.29-1.38-0.5c-0.17-0.14-0.3-0.28-0.41-0.35c-0.17-0.14-0.15-0.35-0.08-0.35c0.12,0.01,0.14,0.14,0.21,0.21
		c0.11,0.06,0.24,0.21,0.39,0.35c0.32,0.21,0.74,0.5,1.27,0.5c0.53,0,1.15-0.29,1.52-0.5c0.2-0.14,0.48-0.35,0.7-0.5
		c0.17-0.14,0.16-0.28,0.31-0.28C21.89,14.06,21.78,14.18,21.59,14.4z M30.42,28.82c-0.02,0.29-0.2,0.43-0.55,0.64
		c-0.68,0.43-1.89,0.76-2.66,1.68c-0.68,0.79-1.49,1.22-2.21,1.28c-0.72,0.05-1.34-0.21-1.71-0.97h-0.01
		c-0.23-0.43-0.13-1.11,0.06-1.81c0.19-0.72,0.46-1.45,0.5-2.04c0.03-0.76,0.08-1.43,0.2-1.94c0.14-0.5,0.34-0.86,0.7-1.06
		l0.05-0.02c0.03,0.64,0.36,1.33,0.96,1.48c0.63,0.14,1.56-0.36,1.94-0.83l0.23-0.01c0.34-0.01,0.63,0.01,0.92,0.29
		c0.23,0.21,0.33,0.57,0.43,0.94c0.1,0.43,0.17,0.84,0.44,1.14C30.26,28.17,30.43,28.58,30.42,28.82z M17.43,30.69v0.01
		c-0.06,0.79-0.53,1.22-1.22,1.38c-0.71,0.14-1.65,0-2.61-0.49c-1.04-0.58-2.3-0.5-3.09-0.65c-0.41-0.06-0.67-0.21-0.79-0.43
		c-0.12-0.21-0.12-0.64,0.14-1.32c0.13-0.36,0.03-0.82-0.03-1.2c-0.05-0.43-0.09-0.76,0.05-1.01c0.17-0.36,0.43-0.43,0.74-0.58
		c0.32-0.14,0.7-0.21,1-0.49v-0.01c0.28-0.29,0.48-0.64,0.73-0.9c0.2-0.21,0.41-0.35,0.72-0.35h0.01c0.05,0,0.11,0,0.17,0.01
		c0.41,0.06,0.76,0.36,1.11,0.8l0.99,1.79h0.01c0.26,0.57,0.82,1.15,1.29,1.76C17.11,29.65,17.48,30.22,17.43,30.69z"/>
	<path class="st2" d="M19.06,13.2c-0.02,0.06-0.13,0.05-0.18,0.08s-0.1,0.08-0.15,0.08s-0.14-0.02-0.15-0.08
		c-0.01-0.08,0.1-0.15,0.16-0.15c0.09-0.03,0.2-0.04,0.28,0c0.02,0.01,0.04,0.03,0.03,0.05v0.02C19.05,13.2,19.06,13.2,19.06,13.2z
		 M21.59,14.4c-0.2,0.14-0.5,0.35-0.75,0.5c-0.47,0.21-1.03,0.57-1.62,0.57c-0.58,0-1.05-0.29-1.38-0.5
		c-0.17-0.14-0.3-0.28-0.41-0.35c-0.17-0.14-0.15-0.35-0.08-0.35c0.12,0.01,0.14,0.14,0.21,0.21c0.11,0.06,0.24,0.21,0.39,0.35
		c0.32,0.21,0.74,0.5,1.27,0.5c0.53,0,1.15-0.29,1.52-0.5c0.2-0.14,0.48-0.35,0.7-0.5c0.17-0.14,0.16-0.28,0.31-0.28
		C21.89,14.06,21.78,14.18,21.59,14.4z"/>
</g>
</svg>
