<?xml version="1.0" encoding="utf-8"?>
<!-- Generator: Adobe Illustrator 26.0.1, SVG Export Plug-In . SVG Version: 6.00 Build 0)  -->
<svg version="1.1" id="Layer_1" xmlns="http://www.w3.org/2000/svg" xmlns:xlink="http://www.w3.org/1999/xlink" x="0px" y="0px"
	 viewBox="0 0 40 40" style="enable-background:new 0 0 40 40;" xml:space="preserve">
<style type="text/css">
	.st0{fill:#E44F26;}
	.st1{fill:#75D0EB;}
	.st2{fill:#102447;}
	.st3{display:none;fill:#102447;}
	.st4{fill:#FFFFFF;}
</style>
<path class="st0" d="M37.42,12.45c0.01,5.68,0.03,10.18,0.04,15.86c0,1.09-0.58,2.1-1.53,2.65l-14.4,8.32
	c-0.95,0.55-2.11,0.55-3.06,0l-14.4-8.32c-0.95-0.55-1.53-1.55-1.53-2.65c0-5.68-0.01-10.18-0.01-15.86
	C14.16,12.45,25.79,12.45,37.42,12.45z"/>
<path class="st1" d="M18.5,39.27L4.08,30.99c-0.95-0.55-1.53-1.56-1.53-2.65L2.52,11.71c0-1.09,0.58-2.1,1.53-2.65l14.39-8.33
	c0.94-0.54,2.11-0.55,3.06-0.01l14.41,8.3c0.95,0.55,1.53,1.56,1.53,2.65l0.02,16.63c0,1.09-0.58,2.1-1.53,2.65l-14.39,8.32
	C20.61,39.82,19.45,39.82,18.5,39.27z"/>
<path class="st2" d="M18.63,37.53L5.53,29.99c-0.86-0.5-1.39-1.42-1.39-2.41L4.11,12.46c0-0.99,0.52-1.91,1.39-2.41l13.08-7.57
	c0.85-0.49,1.92-0.5,2.78-0.01l13.11,7.54c0.86,0.5,1.39,1.42,1.39,2.41l0.02,15.12c0,0.99-0.52,1.91-1.39,2.41l-13.08,7.56
	C20.55,38.02,19.5,38.02,18.63,37.53z"/>
<path class="st3" d="M18.5,39.28L4.08,30.99c-0.95-0.55-1.53-1.56-1.53-2.65L2.52,11.71c0-1.09,0.58-2.1,1.53-2.65l14.39-8.33
	c0.94-0.54,2.11-0.55,3.06-0.01l14.41,8.3c0.95,0.55,1.53,1.56,1.53,2.65l0.02,16.63c0,1.09-0.58,2.1-1.53,2.65l-14.39,8.32
	C20.61,39.82,19.45,39.82,18.5,39.28z"/>
<path class="st4" d="M11.24,11.76c0-0.11,0.08-0.19,0.18-0.21c0.4-0.04,1.52-0.14,3.9-0.14c3.59,0,6.1,1.42,6.1,5.32
	c0,3.51-2.39,5.57-6.25,5.57c-0.23,0-0.45,0-1.22,0v5.88c0,0.1-0.08,0.18-0.18,0.18h-2.36c-0.1,0-0.18-0.08-0.18-0.18L11.24,11.76
	L11.24,11.76z M13.96,19.84c0,0,1.19,0.01,1.45,0.01c2.2,0,3.21-1.31,3.21-3.06c0-1.64-0.97-2.92-3.01-2.92
	c-0.84,0-1.65,0.05-1.65,0.05L13.96,19.84L13.96,19.84z"/>
<path class="st4" d="M22.89,25.36c0-0.09,0.1-0.15,0.18-0.1c0.5,0.34,1.53,0.91,3.11,0.91c1.03,0,1.69-0.44,1.69-1.17
	c0-0.8-1.1-1.39-2.02-1.88c-0.91-0.49-2.94-1.28-2.94-3.83c0-2.26,1.8-3.62,4.26-3.62c0.94,0,1.98,0.15,2.68,0.4
	c0.12,0.04,0.19,0.15,0.19,0.28v2.29c0,0.09-0.1,0.16-0.18,0.1c-0.44-0.29-1.41-0.73-2.74-0.73c-1.11,0-1.6,0.54-1.6,1.09
	c0,0.96,1.28,1.37,2.44,2.04c1.8,1,2.63,1.98,2.63,3.51c0,2.5-1.87,3.91-4.4,3.91c-1.31,0-2.53-0.28-3.16-0.67
	c-0.09-0.05-0.13-0.15-0.13-0.25L22.89,25.36z"/>
</svg>
